<?xml version="1.0" encoding="UTF-8" standalone="no"?>
<svg id="svg2876" xmlns:rdf="http://www.w3.org/1999/02/22-rdf-syntax-ns#" xmlns="http://www.w3.org/2000/svg" xml:space="preserve" viewBox="0 0 414.83 109.98" version="1.1" xmlns:cc="http://creativecommons.org/ns#" xmlns:dc="http://purl.org/dc/elements/1.1/"><metadata id="metadata2882"><rdf:RDF><cc:Work rdf:about=""><dc:format>image/svg+xml</dc:format><dc:type rdf:resource="http://purl.org/dc/dcmitype/StillImage"/><dc:title/></cc:Work></rdf:RDF></metadata><defs id="defs2880"><clipPath id="clipPath2894" clipPathUnits="userSpaceOnUse"><path id="path2896" d="M0,879.84,0,0h3318.7v879.84h-3318.7z"/></clipPath></defs><g id="g2886" transform="matrix(1.25,0,0,-1.25,0,109.97993)"><g id="g2888" transform="scale(0.1,0.1)"><g id="g2890"><g id="g2892" clip-path="url(#clipPath2894)"><path id="path2898" fill-rule="nonzero" fill="#7a7778" d="m1813.6,65.402,0-15.84c0-5.8789,0.24-11.641,0.24-17.52,0-20.883-9.72-32.043-31.56-32.043-14.16,0-27.6,5.1602-31.68,19.922-1.2,4.3203-1.2,8.8828-1.2,13.32,0,17.52,0.24,35.039-0.36,52.441l0.72,0.8398c4.56,0.1172,9,0.1172,13.56,0.3633l0.6-0.8476c-0.6-15.238-0.48-30.477-0.48-45.719,0-8.9961-1.08-21.84,7.92-27.238,3.48-2.0429,7.56-3,11.52-3,4.8,0,9.72,1.2032,13.32,4.3164,7.2,6.3633,6.24,17.402,6.24,26.164,0,15,0,30.121-0.84,45.121l0.6,0.8398c3.72,0.1172,7.32,0.1172,11.04,0.3633l0.72-0.8476c-0.24-6.836-0.36-13.797-0.36-20.637"/><path id="path2900" fill-rule="nonzero" fill="#7a7778" d="m1946.5,1.8008c-4.92,0-9.83-0.12109-14.76-0.35937l-0.95,0.83984c-7,12.719-14.3,25.199-21.4,37.801l-18.96,33.84,1.21-41.156c0.24-10.086,0.6-20.047,1.07-30.125l-0.6-0.83984c-3.83,0-7.79-0.12109-11.64-0.35937l-0.71,0.83984c0.71,15.84,0.6,31.68,0.6,47.52,0,11.762,0.11,24.242-0.73,35.883l0.6,0.8398c5.17,0.1172,10.32,0.1172,15.48,0.3633l1.33-0.8476c12.72-23.516,26.04-46.68,39.23-69.953-0.6,23.156-0.84,46.438-2.04,69.598l0.73,0.8398c3.83,0,7.55,0.1172,11.39,0.3633l0.73-0.8476c0-17.637-0.37-35.156-0.37-52.676,0-10.32,0.13-20.52,0.37-30.723l-0.61-0.83984"/><path id="path2902" fill-rule="nonzero" fill="#7a7778" d="m2026.9,1.8008c-4.44,0-8.88-0.12109-13.32-0.35937l-0.72,0.83984c0.48,8.2812,0.6,16.563,0.6,24.844v13.32c0,15.117-0.24,30.117-0.96,45.238l0.72,0.8398c4.44,0.1172,8.88,0.1172,13.32,0.4805l0.72-0.9648c-0.24-12.719-0.6-25.438-0.6-38.156,0-15.117,0.24-30.117,1.08-45.242l-0.84-0.83984"/><path id="path2904" fill-rule="nonzero" fill="#7a7778" d="m2141.5,44.281c-4.32-13.922-9.12-27.602-13.08-41.641l-0.71-0.83984c-5.77,0-11.64-0.12109-17.41-0.35937l-0.84,0.83984c-1.08,3.4805-1.92,7.0781-2.99,10.563-1.81,6.3593-3.73,12.602-5.64,18.957-5.4,18-10.92,36.004-16.57,53.883l0.73,0.8398c4.56,0.1172,9.23,0.1172,13.79,0.3633l0.84-0.8476c6.48-25.316,13.56-50.516,20.53-75.719l10.68,37.684c3.59,12.48,6.71,25.199,10.32,37.68l0.72,0.8398c3.96,0.1172,8.04,0.1172,12,0.3633l0.59-0.8476c-4.67-13.797-8.51-27.836-12.96-41.758"/><path id="path2906" fill-rule="nonzero" fill="#7a7778" d="m2262.6,2.6406-0.84-0.83984c-16.68,0-33.24-0.12109-49.92-0.35937l-0.6,0.83984c0.72,17.402,0.6,34.797,0.6,52.078,0,10.441-0.12,20.883-0.84,31.324l0.84,0.8398c16.8,0.1172,33.6,0.2383,50.4,0.3633l0.6-0.8476c-0.36-3.1133-0.6-6.2344-0.72-9.3555l-0.84-0.8398c-12,0.3554-23.88,0.5976-35.88,0.5976-0.12-8.5156-0.24-17.039-0.24-25.559h12.48c7.08,0,14.28,0.1172,21.36,0.3555l0.72-0.836c-0.36-3.1211-0.6-6.2421-0.72-9.3632l-0.72-0.8399c-8.76,0.2461-17.52,0.3633-26.4,0.3633h-6.72c-0.12-5.6406-0.24-11.281-0.24-16.918,0-3.9609,0.12-7.8047,0.12-11.766h6.6c10.32,0,20.64,0.2461,30.84,0.6016l0.6-0.8399c-0.24-2.9961-0.36-6-0.48-9"/><path id="path2908" fill-rule="nonzero" fill="#7a7778" d="m2364.1,72.242c-4.56,4.9219-11.88,4.8008-18.12,4.8008-2.52,0-5.16-0.1172-7.68-0.2422-0.13-3.1172-0.13-6.2383-0.13-9.2383v-10.32c0-3.2383,0-6.3594,0.13-9.6016,1.8,0,3.48-0.1172,5.27-0.1172,10.09,0,24.13,1.7969,24.13,15,0,3.4766-1.21,7.0821-3.6,9.7188zm22.3-70.562c-4.93,0-9.84-0.11719-14.76-0.48047l-0.84,0.48047c-3.84,6.8398-8.16,13.203-12.48,19.684-3.73,5.6406-7.2,11.16-11.16,16.559-2.88,0-5.89-0.1172-8.76-0.1172,0-11.766,0.35-23.406,0.96-35.164l-0.72-0.83984c-4.45,0-8.76-0.12109-13.21-0.35937l-0.71,0.83984c0.36,11.762,0.48,23.402,0.48,35.16,0,16.078-0.24,32.164-1.21,48.242l0.73,0.8398c5.04,0,9.96,0.2383,15,0.2383h7.32c16.44,0,33.96-2.5195,33.96-23.156,0-12.723-8.76-20.524-20.4-23.645,8.8-12.36,17.2-24.962,26.4-37.079l-0.6-1.2031"/><path id="path2910" fill-rule="nonzero" fill="#7a7778" d="m2465,0c-7.56,0-16.81,1.6797-23.53,5.2812l-0.36,0.84375c0.36,3.7188,0.6,7.3164,0.84,11.039l1.33,0.4765c6.35-4.9218,12.83-6.957,20.88-6.957,8.76,0,17.75,3.4766,17.75,13.559,0,18.477-40.8,12.961-40.8,40.918,0,16.441,14.4,23.16,29.05,23.16,7.55,0,14.4-1.3164,21.48-3.9609l0.71-0.8399c-0.47-3.4765-0.71-7.0781-0.95-10.555l-1.08-0.6015c-6.49,3.5976-12.37,5.6406-19.81,5.6406-7.32,0-16.19-3.0039-16.19-11.766,0-17.516,41.75-11.879,41.75-40.676,0.3-17.639-15.2-25.561-30.8-25.561"/><path id="path2912" fill-rule="nonzero" fill="#7a7778" d="m2571.9,1.8008c-4.44,0-8.88-0.12109-13.32-0.35937l-0.72,0.83984c0.47,8.2812,0.6,16.563,0.6,24.844v13.32c0,15.117-0.24,30.117-0.97,45.238l0.73,0.8398c4.44,0.1172,8.88,0.1172,13.32,0.4805l0.72-0.9648c-0.24-12.719-0.61-25.438-0.61-38.156,0-15.117,0.25-30.117,1.09-45.242l-0.84-0.83984"/><path id="path2914" fill-rule="nonzero" fill="#7a7778" d="m2689,77.043-0.6-0.8438c-7.32,0.2422-14.75,0.2422-22.08,0.2422-0.35-11.641-0.24-23.277-0.24-34.918,0-12.965,0.13-25.922,0.84-38.883l-0.71-0.83984c-4.57,0-9.24-0.12109-13.8-0.35937l-0.6,0.83984c0.71,16.801,0.71,33.602,0.71,50.398,0,7.9219-0.11,15.965-0.36,23.883-7.43-0.2383-14.88-0.3633-22.32-0.6016l-0.71,0.8399c0.23,3.0039,0.36,5.8789,0.36,8.8828l0.71,0.8398c19.56,0,39.24,0,58.8,0.3633l0.6-0.8476c-0.36-2.9961-0.47-5.9961-0.6-8.9961"/><path id="path2916" fill-rule="nonzero" fill="#7a7778" d="m2781.7,37.562c-0.11-3-0.11-6-0.11-9.0039,0-8.6367,0-17.273,0.6-25.918l-0.6-0.83984c-4.45,0-8.88-0.12109-13.32-0.23828l-0.6,0.83984c0.24,7.3203,0.36,14.641,0.36,21.957v12.242c-8.52,16.441-17.17,32.641-26.4,48.719l0.6,1.2031c4.68,0.2383,9.24,0.3633,13.92,0.8399l0.84-0.6016c3.6-7.0781,6.84-14.281,10.32-21.359,2.75-5.6406,5.88-11.16,8.52-16.922,6.71,12.242,13.08,24.723,19.08,37.32l0.95,0.7226c3.96,0,7.81,0.1172,11.77,0.3633l0.72-0.9648c-9.13-15.961-18.48-31.918-26.65-48.359"/><path id="path2918" fill-rule="nonzero" fill="#231f20" d="m591.8,733.93c3.848-1.133,6.058,1.933,7.031,3.636,0.746,1.262,1.211,2.614,1.211,4.004-0.082,1.739-0.957,2.758-2.719,3.782-0.898,0.511-1.578,0.836-2.449,1.254-3.461-5.86-3.793-6.454-6.504-11,0.695-0.454,2.238-1.364,3.43-1.676zm-2.293,24.234c1.808-0.969,10.453-5.824,12.437-6.965,2.856-1.644,5.797-3.578,7.262-5.961,2.192-3.609,1.461-8.183-1.09-12.586-2.328-4.031-5.031-5.769-7.035-6.453-1.973-0.761-3.59-0.625-4.738-0.566l-0.727-6.984c-0.492-4.778-1.008-9.637-1.078-14.434l-0.449-0.258c-4.633,2.531-5.711,3.07-9.582,5.012l-0.25,0.586c0.453,2.679,0.617,3.609,2.238,14.66l0.543,4.004c-1.012,0.519-1.172,0.625-2.164,1.195-2.906-5.019-5.762-9.972-8.332-15.172l-0.461-0.172c-4.207,2.5-4.91,2.844-8.832,4.95l-0.129,0.535c4.156,6.914,8.086,13.469,10.301,17.308,2.199,3.801,4.316,7.579,6.488,11.469,2.461,4.375,3.551,6.395,5.219,9.692l0.379,0.14"/><path id="path2920" fill-rule="nonzero" fill="#231f20" d="m658.44,710.4-1.328-1.535c-1.742-2.047-10.179-12.301-12.055-14.625l-2.773-3.422c-4.961-5.953-7.168-8.574-11.383-9.754-4.453-1.23-8.789,0.157-13.636,4.067-1.782,1.433-8.954,7.234-5.809,15.808,1.101,2.957,3.117,5.567,6.406,9.629l6.195,7.672c6.504,8.156,7.098,8.891,9.477,12.028l0.441,0.136c3.559-2.871,4.258-3.433,8.332-6.48l0.008-0.485c-5.656-6.808-11.215-13.597-16.738-20.421-1.516-1.875-3.352-4.157-4.176-6.188-0.285-0.746-1.535-3.906,1.489-6.352,1.136-0.925,2.503-1.449,4.14-1.132,2.34,0.468,4.176,2.343,7.153,5.902l11.632,14.395c2.637,3.265,3.301,4.109,5.176,6.527l0.496,0.09c2.918-2.356,3.75-3.039,6.883-5.321l0.07-0.539"/><path id="path2922" fill-rule="nonzero" fill="#231f20" d="m652.91,652.5c-3.285,3.641-4.051,4.469-7.137,7.508l0.051,0.508c4,3.433,4.289,3.699,11.168,10.109,2.668,2.473,5.277,4.891,7.961,7.312,4.66,4.239,5.164,4.711,8.207,7.532-4.125,4.343-5.082,5.351-6.504,6.718l0.051,0.489c2.566,2.121,2.832,2.379,5.402,4.668l0.539-0.028,9.512-10.246c5.039-5.312,7.332-7.781,10.285-10.762l-0.078-0.5c-2.543-2.023-3.246-2.57-5.551-4.558l-0.543,0.012c-0.402,0.418-2.238,2.601-2.73,3.113-1.024,1.223-2.106,2.391-3.188,3.551-2.195-1.957-3.488-3.168-5.961-5.453-7.078-6.594-14.066-13.176-20.941-19.993l-0.543,0.02"/><path id="path2924" fill-rule="nonzero" fill="#231f20" d="m703.82,621.89c-1.902-1.168-3.363-2.082-7.156-4.746-3.199-2.215-6.332-4.485-9.496-6.739h-0.543c-3.586,2.387-6.5,5.551-8.918,9.047-2.25,3.239-6.164,9.422-3.457,17.66,1.582,4.743,5.332,9.059,10.125,12.387,6.375,4.43,13.031,6.113,18.25,5.406,7.086-0.949,11.156-5.797,13.336-8.929,0.828-1.196,3.707-5.453,4.457-10.43l-0.254-0.426c-1.258-0.726-2.586-1.496-3.871-2.215-1.117-0.625-2.289-1.277-3.367-1.961l-0.399,0.254c0.098,1.309,0.457,4.578-2.32,8.555-4.629,6.676-11.973,5.992-19.449,0.793-5.942-4.141-10.426-10.055-6.551-15.641,0.735-1.035,1.422-1.714,2.5-2.367,1.449,0.938,2.418,1.531,4.293,2.84,2.301,1.598,4.574,3.242,6.664,5.027l0.504-0.054c2.613-3.75,3.191-4.594,5.785-7.985l-0.133-0.476"/><path id="path2926" fill-rule="nonzero" fill="#231f20" d="m716.03,594.07-10.379-5.128,1.145-2.34c3.199-6.153,3.906-7.578,5.32-10l-0.168-0.5c-3.078-1.25-3.789-1.536-6.926-2.946l-0.527,0.188-4.5,9.105c-3.535,7.121-4.293,8.668-6.246,12.168l0.203,0.453c4.567,2.125,7.789,3.641,15.129,7.278,8.164,4.035,18.66,9.312,24.539,12.64l0.488-0.113c3.469-7.141,7.219-14.723,10.68-21.316l-0.125-0.426c-2.848-1.125-3.59-1.492-6.5-2.781l-0.508,0.164-0.508,1.027c-0.859,1.707-1.664,3.504-2.523,5.231l-1.629,3.292-1.043,2.106c-4.043-1.992-5.082-2.504-9.43-4.742l1.215-2.449c1.465-2.954,2.383-4.704,4.426-8.508l-0.168-0.528c-3.016-1.211-3.418-1.39-6.266-2.675l-0.523,0.175c-1.297,2.782-2.637,5.5-4,8.239l-1.176,2.386"/><path id="path2928" fill-rule="nonzero" fill="#231f20" d="m738.87,552.97c2.117-3.383,5.797-2.586,7.672-1.961,1.375,0.453,2.625,1.129,3.574,2.168,1.086,1.351,1.117,2.711,0.469,4.632-0.305,0.965-0.602,1.676-0.965,2.575-6.496-2.075-7.16-2.289-12.179-3.871,0.183-0.797,0.75-2.5,1.429-3.543zm14.453,19.589c0.68-1.914,3.891-11.296,4.618-13.464,1.015-3.157,1.933-6.536,1.433-9.293-0.766-4.157-4.375-7.075-9.211-8.657-4.414-1.453-7.582-0.953-9.535-0.117-1.973,0.766-3.09,1.938-3.891,2.735l-5.211-4.711c-3.57-3.25-7.168-6.5-10.437-10.047l-0.504,0.09c-1.754,4.972-2.203,6.117-3.797,10.136l0.211,0.614c2.125,1.699,2.875,2.265,11.422,9.425l3.105,2.618c-0.414,1.082-0.484,1.25-0.835,2.339-5.497-1.796-10.942-3.589-16.317-5.757l-0.461,0.199c-1.465,4.672-1.762,5.375-3.285,9.551l0.242,0.5c7.719,2.382,15.008,4.636,19.25,6.039,4.168,1.351,8.25,2.761,12.461,4.207,4.75,1.633,6.914,2.418,10.36,3.75l0.382-0.157"/><path id="path2930" fill-rule="nonzero" fill="#231f20" d="m762.04,500.22c1.047,1.797,2.25,4.015,1.633,7.519-0.555,3.196-2.801,4.942-5.504,4.453-2.004-0.343-3.203-1.593-4.336-3.871-0.461-0.722-2.125-4.508-2.488-5.347-2.055-4.418-4.375-8.125-10.637-9.243-4.18-0.742-7.641,0.2-9.957,1.59-4.266,2.61-5.875,6.907-6.625,11.164-0.43,2.446-0.707,6.204,0.332,9.746l0.57,0.493c1.309,0.168,2.719,0.289,4.098,0.465,1.211,0.16,2.418,0.296,3.609,0.507l0.266-0.468c-1.625-2.469-2.211-5.418-1.684-8.297,0.817-4.707,4.356-5.371,6.5-4.992,2.754,0.492,3.934,2.503,5.473,5.878l1.344,2.95c1.742,3.664,3.91,8.246,10.793,9.464,4.519,0.797,7.875-0.339,9.949-1.843,3.414-2.442,4.734-6.282,5.359-9.785,0.559-3.18,0.563-6.547-0.359-9.672l-0.461-0.34c-1.332-0.117-2.664-0.231-3.996-0.395l-3.594-0.433-0.285,0.457"/><path id="path2932" fill-rule="nonzero" fill="#231f20" d="m729.77,437.77c0.187,4.907,0.226,6.036,0.14,10.368l0.402,0.3c5.27-0.332,5.645-0.339,15.059-0.593,3.621-0.082,7.172-0.192,10.789-0.336,6.297-0.25,7.004-0.254,11.129-0.371,0.109,5.964,0.149,7.371,0.074,9.339l0.379,0.321c3.297-0.285,3.68-0.285,7.121-0.453l0.371-0.379-0.375-13.996c-0.148-7.321-0.242-10.672-0.211-14.879l-0.402-0.317c-3.223,0.356-4.125,0.446-7.168,0.657l-0.375,0.375c0.031,0.582,0.235,3.425,0.25,4.129,0.094,1.589,0.152,3.175,0.195,4.781-2.937,0.129-4.703,0.172-8.07,0.265-9.664,0.274-19.266,0.454-28.949,0.403l-0.359,0.386"/><path id="path2934" fill-rule="nonzero" fill="#231f20" d="m724.91,394.02c7.379-1.407,11.297-2.211,19.461-3.508,0.324,1.426,0.586,3,0.824,4.308,0.469,2.774,0.723,4.985,0.883,6.235-3.449,0.601-11.844,2.004-19.285,3.097l-0.301,0.442c0.918,4.879,1.07,6.133,1.656,10.246l0.43,0.297c7.004-1.332,14-2.621,21.031-3.832,10.633-1.867,16.621-2.774,22.602-3.547l0.328-0.453c-0.836-4.375-1.047-5.625-1.598-10.293l-0.445-0.328c-1.703,0.293-9.758,1.761-11.586,2.082l-4.828,0.836c-0.512-2.297-1.504-8.325-1.754-10.465,2.328-0.41,9.375-1.446,16.219-2.5l0.32-0.446c-0.906-5.136-0.957-5.886-1.597-10.3l-0.438-0.25c-4.055,0.765-9.43,1.761-18.211,3.289-2.754,0.496-17.793,3.093-25.496,4.121l-0.297,0.426c0.86,4.574,0.988,5.328,1.637,10.246l0.445,0.297"/><path id="path2936" fill-rule="nonzero" fill="#231f20" d="m733.41,350.43-10.976,3.64-0.829-2.472c-2.074-6.614-2.57-8.121-3.281-10.836l-0.492-0.242c-3.047,1.289-3.754,1.589-6.969,2.796l-0.246,0.489,3.211,9.64c2.531,7.563,3.07,9.188,4.156,13.035l0.465,0.196c4.711-1.711,8.086-2.91,15.863-5.492,8.629-2.879,19.805-6.543,26.309-8.301l0.277-0.438c-2.574-7.511-5.25-15.547-7.418-22.664l-0.402-0.187c-2.828,1.207-3.602,1.461-6.59,2.586l-0.242,0.476,0.371,1.106c0.609,1.797,1.293,3.64,1.879,5.461l1.168,3.496,0.746,2.226c-4.285,1.442-5.371,1.789-10.039,3.278l-0.848-2.582c-1.047-3.153-1.613-5.039-2.863-9.172l-0.473-0.246c-3,1.261-3.418,1.414-6.336,2.507l-0.242,0.493c1.012,2.871,1.992,5.761,2.953,8.664l0.848,2.543"/><path id="path2938" fill-rule="nonzero" fill="#231f20" d="m715.49,274.27c1.949,0.707,4.297,1.621,6.09,4.707,1.621,2.804,1.008,5.578-1.348,6.953-1.777,1.008-3.488,0.832-5.82-0.168-0.828-0.254-4.512-2.086-5.336-2.5-4.426-2.074-8.582-3.414-14.09-0.242-3.699,2.128-5.742,5.078-6.621,7.628-1.586,4.739-0.043,9.075,2.121,12.825,1.223,2.132,3.43,5.203,6.516,7.226l0.738,0.024c1.129-0.735,2.285-1.543,3.465-2.293,1.004-0.66,2.035-1.321,3.078-1.914l-0.086-0.543c-2.859-0.86-5.195-2.739-6.656-5.274-2.383-4.133-0.086-6.922,1.789-7.984,2.414-1.41,4.621-0.621,7.965,0.969l2.941,1.382c3.68,1.696,8.293,3.821,14.34,0.321,3.961-2.289,5.817-5.332,6.422-7.832,1.043-4.043-0.395-7.832-2.176-10.918-1.621-2.813-3.785-5.375-6.5-7.196l-0.578,0.036c-1.082,0.789-2.176,1.574-3.301,2.285l-3.039,1.968,0.086,0.54"/><path id="path2940" fill-rule="nonzero" fill="#231f20" d="m665.12,264.23c3.031,3.868,3.711,4.778,6.203,8.325l0.496,0.007c4.078-3.339,4.379-3.585,11.84-9.3,2.883-2.203,5.711-4.364,8.551-6.617,4.98-3.872,5.531-4.297,8.82-6.797,3.578,4.793,4.422,5.89,5.512,7.539l0.492,0.015c2.531-2.164,2.832-2.386,5.508-4.515l0.078-0.539-8.5-11.121c-4.379-5.84-6.426-8.532-8.879-11.926l-0.496-0.039c-2.418,2.176-3.086,2.765-5.449,4.718l-0.055,0.536c0.336,0.457,2.168,2.664,2.594,3.211,1.031,1.218,1.992,2.492,2.953,3.75-2.289,1.828-3.703,2.914-6.375,4.953-7.672,5.875-15.34,11.668-23.215,17.265l-0.078,0.535"/><path id="path2942" fill-rule="nonzero" fill="#231f20" d="m660.12,228.94c-1.621-1.54-4.16-4.211-5.676-5.836l7.086-4.411c3.969-2.586,4.379-2.886,8.473-5.601-2.258,3.476-3.129,4.883-5.668,8.898l-4.215,6.95zm-22.285,4.867c2.664-1.832,5.414-3.668,10.113-6.61,2.637,2.582,5.258,5.25,7.852,7.961-2.09,3.41-4.215,6.774-6.477,9.992l0.039,0.586c3.176,3.211,3.579,3.618,6.387,6.653h0.453c2.457-4.575,3.41-6.125,6.633-11.746l6.539-11.379c1.457-2.5,2.871-5.067,4.367-7.621,0.758-1.293,4.5-7.754,5.348-9.235l-0.043-0.476c-3.605-3.668-4.766-4.84-8.563-8.957l-0.539-0.004-1.906,1.054c-5.223,3.122-9.117,5.34-14.426,8.372l-10.695,6.199c-4.707,2.754-8.449,4.926-8.934,5.168-1.73,0.961-3.023,1.718-3.652,2.082l-0.051,0.5c3.125,3.25,4.188,4.418,7.012,7.461h0.543"/><path id="path2944" fill-rule="nonzero" fill="#231f20" d="m610.52,210.77c3.891,2.972,4.789,3.675,8.063,6.5l0.496-0.086c3.109-4.289,3.328-4.582,9.156-11.992,2.223-2.84,4.422-5.657,6.621-8.547,3.836-4.989,4.262-5.543,6.805-8.793,4.664,3.75,5.777,4.617,7.246,5.922l0.488-0.094c1.891-2.731,2.129-3.031,4.188-5.77l-0.051-0.523-11.008-8.653c-5.73-4.55-8.367-6.636-11.589-9.332l-0.485,0.114c-1.801,2.711-2.305,3.437-4.086,5.918l0.051,0.543c0.453,0.343,2.785,2.011,3.328,2.457,1.293,0.918,2.543,1.914,3.793,2.879-1.754,2.343-2.84,3.746-4.922,6.41-5.965,7.59-11.953,15.101-18.164,22.511l0.07,0.536"/><path id="path2946" fill-rule="nonzero" fill="#231f20" d="m593.08,175.56-5.914,9.949-2.227-1.332c-5.902-3.664-7.273-4.481-9.57-6.071l-0.535,0.133c-1.469,2.985-1.801,3.66-3.441,6.696l0.136,0.507,8.746,5.2c6.836,4.054,8.301,4.949,11.641,7.156l0.484-0.16c2.457-4.399,4.219-7.496,8.414-14.539,4.637-7.825,10.707-17.907,14.473-23.504l-0.086-0.492c-6.867-4.004-14.125-8.325-20.422-12.29l-0.449,0.118c-1.336,2.75-1.754,3.457-3.262,6.254l0.129,0.539,0.989,0.586c1.636,0.961,3.347,1.914,5.003,2.882l3.168,1.903,2.012,1.183c-2.293,3.899-2.875,4.871-5.433,9.043l-2.36-1.39c-2.836-1.696-4.5-2.75-8.16-5.075l-0.512,0.133c-1.453,2.918-1.664,3.317-3.164,6.059l0.153,0.508c2.64,1.504,5.269,3.082,7.89,4.625l2.297,1.379"/><path id="path2948" fill-rule="nonzero" fill="#231f20" d="m522.45,117.57-0.578,1.953c-0.793,2.567-4.84,15.207-5.793,18.047l-1.371,4.164c-2.336,7.403-3.34,10.696-2.047,14.864,1.344,4.41,4.879,7.324,10.797,9.289,2.164,0.707,10.914,3.621,16.414-3.668,1.914-2.535,3-5.653,4.656-10.586l3.094-9.371c3.336-9.879,3.649-10.786,5-14.489l-0.125-0.429c-4.332-1.453-5.176-1.735-9.957-3.5l-0.422,0.25c-2.664,8.425-5.363,16.793-8.125,25.121-0.746,2.297-1.668,5.058-2.945,6.851-0.465,0.653-2.469,3.403-6.137,2.192-1.387-0.457-2.582-1.332-3.207-2.875-0.875-2.239-0.293-4.789,1.117-9.203l5.809-17.579c1.328-3.972,1.66-5.007,2.695-7.882l-0.195-0.457c-3.551-1.196-4.586-1.536-8.207-2.922l-0.473,0.23"/><path id="path2950" fill-rule="nonzero" fill="#231f20" d="m488.38,126.14-2.176,11.578c-1.492,8.312-1.914,10.562-3.09,16.508l0.305,0.422c3.91,0.621,4.914,0.781,8.152,1.464l0.43-0.304c0.543-3.856,0.996-7.196,1.625-11.282,0.926-5.968,2.871-17.574,3.57-21.582,0.329-1.675,1.094-6.203,2.012-10.886l-0.324-0.418c-4.637-0.742-5.387-0.86-9.707-1.711l-0.551,0.293c-2.297,3.172-3.289,4.504-9.883,13.004l-9.121,11.761,2.254-12.714,1.254-6.879c0.687-3.875,0.746-4.254,1.395-7.172l-0.321-0.449c-3.883-0.676-4.761-0.797-7.953-1.422l-0.379,0.328c-1.453,9.297-2.707,17.84-3.125,20.476-0.746,4.778-2.492,15.907-3.887,23.278l0.309,0.429c4.281,0.668,5.039,0.786,9.027,1.614l0.555-0.293c1.879-2.618,2.375-3.25,8.406-10.918l11.223-15.125"/><path id="path2952" fill-rule="nonzero" fill="#231f20" d="m431.12,149.76c4.524,0.043,5.59,0.133,10.488,0.457l0.387-0.371c0.082-8.332,0.238-16.59,0.449-24.922,0.157-6.117,0.246-9.614,0.801-19.395l-0.297-0.39c-4.402-0.043-5.738-0.082-10.551-0.457l-0.402,0.371c0.047,5.668-0.019,11.257-0.164,16.871-0.246,9.211-0.543,18.351-1.086,27.433l0.375,0.403"/><path id="path2954" fill-rule="nonzero" fill="#231f20" d="m396.41,151.44c5.254-0.515,6.41-0.554,10.797-0.765l0.332-0.41c0.32-2.258,0.492-3.239,1.039-7.047l1.008-5.836,2.5-14.274c0.371-2.39,0.785-4.793,1.23-7.183,0.563-3.571,1.231-7.528,1.844-10.711l-0.289-0.356c-4.828,0.317-5.961,0.403-10.476,0.485l-0.411,0.418c-0.703,7.918-1.406,13.039-2.246,19.996l-1.867,14.289-4.914-15.156c-2.227-7.129-3.375-10.672-5.211-17.594l-0.414-0.289c-3.469,0.304-4.496,0.39-8.805,0.586l-0.234,0.414c1.246,3.211,1.246,3.258,7.117,19.082l3.387,9.336c2.117,5.703,2.391,6.629,5.199,14.668l0.414,0.347"/><path id="path2956" fill-rule="nonzero" fill="#231f20" d="m357.52,138.19,2.585,11.285-2.543,0.582c-6.781,1.422-8.328,1.793-11.109,2.215l-0.293,0.46c1.004,3.165,1.219,3.907,2.125,7.211l0.453,0.289,9.918-2.261c7.75-1.785,9.426-2.164,13.371-2.871l0.219-0.453c-1.25-4.868-2.094-8.329-3.93-16.305-2.031-8.867-4.609-20.36-5.738-27.016l-0.39-0.304c-7.735,1.839-15.981,3.742-23.278,5.207l-0.25,0.378c0.949,2.922,1.129,3.743,1.961,6.797l0.457,0.286,1.125-0.254c1.84-0.422,3.754-0.918,5.625-1.34l3.582-0.828,2.297-0.539c1,4.41,1.273,5.535,2.289,10.304l-2.668,0.61c-3.207,0.746-5.14,1.125-9.383,1.964l-0.289,0.454c0.961,3.121,1.074,3.539,1.879,6.546l0.461,0.29c2.957-0.747,5.945-1.422,8.914-2.094l2.61-0.613"/><path id="path2958" fill-rule="nonzero" fill="#231f20" d="m311.29,146.48c-3.961,0.504-5.668-2.847-6.379-4.683-0.515-1.371-0.789-2.778-0.578-4.153,0.375-1.71,1.406-2.586,3.289-3.3,0.957-0.379,1.699-0.582,2.613-0.875,2.504,6.332,2.758,6.976,4.715,11.879-0.75,0.371-2.41,0.996-3.66,1.132zm6.039-23.589c-1.914,0.675-11.215,4.121-13.367,4.953-3.086,1.179-6.266,2.625-8.102,4.754-2.707,3.242-2.695,7.871-0.863,12.617,1.668,4.332,4.047,6.461,5.922,7.457,1.855,1.047,3.457,1.172,4.605,1.293l-0.363,7.011c-0.258,4.801-0.496,9.665-1.18,14.426l0.391,0.328c4.961-1.769,6.125-2.14,10.246-3.472l0.34-0.539c-0.019-2.707-0.047-3.664,0.082-14.825l0.078-4.046c1.09-0.336,1.254-0.418,2.332-0.836,2.082,5.418,4.133,10.75,5.867,16.289l0.43,0.246c4.539-1.828,5.285-2.035,9.484-3.531l0.215-0.493c-3.031-7.476-5.883-14.554-7.488-18.722-1.586-4.082-3.082-8.149-4.625-12.325-1.746-4.71-2.504-6.871-3.66-10.378l-0.344-0.207"/><path id="path2960" fill-rule="nonzero" fill="#231f20" d="m255.5,162.07c0.738-1.929,1.668-4.293,4.785-6.015,2.832-1.602,5.586-0.953,6.926,1.426,0.996,1.785,0.789,3.496-0.25,5.828-0.258,0.797-2.137,4.472-2.555,5.293-2.129,4.41-3.535,8.543-0.418,14.082,2.078,3.718,4.996,5.8,7.543,6.711,4.719,1.664,9.055,0.171,12.832-1.946,2.164-1.211,5.254-3.379,7.329-6.433l0.015-0.742c-0.707-1.133-1.5-2.29-2.246-3.469-0.633-1.035-1.293-2.043-1.879-3.113l-0.543,0.082c-0.875,2.832-2.789,5.156-5.34,6.578-4.16,2.332-6.922,0.004-7.988-1.875-1.352-2.446-0.547-4.649,1.082-7.961l1.441-2.914c1.723-3.668,3.899-8.25,0.481-14.34-2.223-3.996-5.258-5.875-7.723-6.535-4.039-1.082-7.859,0.304-10.953,2.043-2.832,1.586-5.433,3.707-7.281,6.414l0.031,0.558c0.754,1.11,1.535,2.207,2.242,3.356l1.93,3.054,0.539-0.082"/><path id="path2962" fill-rule="nonzero" fill="#231f20" d="m248.95,209.14c3.649-2.672,4.567-3.25,8.66-5.957l0.086-0.532c-4.957-6.683-9.828-13.379-14.676-20.136-3.57-4.961-5.613-7.821-11.043-15.961l-0.488-0.125c-3.531,2.617-4.621,3.386-8.699,6.004l-0.09,0.535c3.457,4.472,6.785,9,10.039,13.547,5.371,7.5,10.656,14.961,15.696,22.539l0.515,0.086"/><path id="path2964" fill-rule="nonzero" fill="#231f20" d="m223.91,229.98c3.59-3.297,4.457-4.079,7.797-6.801l-0.008-0.5c-3.664-3.817-3.918-4.102-10.203-11.114-2.41-2.699-4.789-5.339-7.254-8.007-4.242-4.653-4.711-5.164-7.484-8.25,4.496-3.942,5.543-4.875,7.109-6.082l-0.035-0.5c-2.336-2.336-2.59-2.625-4.926-5.149l-0.539-0.019-10.418,9.332c-5.496,4.832-8.004,7.086-11.215,9.789l0.016,0.5c2.34,2.23,2.996,2.851,5.125,5.047l0.539,0.035c0.422-0.399,2.461-2.399,2.996-2.867,1.133-1.11,2.324-2.168,3.504-3.211,2.004,2.129,3.176,3.461,5.426,5.961,6.449,7.207,12.816,14.41,19.027,21.804l0.543,0.032"/><path id="path2966" fill-rule="nonzero" fill="#231f20" d="m184.58,245.52c0.195,0.078,9.988,8.789,12.961,11.546l0.543-0.035c3.25-3.726,4.086-4.683,6.996-7.722l-0.039-0.543c-4.844-3.715-12.336-10.336-13.144-11.047l-5.333-11.403c-0.816-1.882-1.703-3.757-2.609-5.632-2.883-6.071-3.207-6.668-4.539-9.786l-0.422-0.093c-3.254,3.636-3.887,4.269-7.426,7.843l-0.004,0.586c0.766,1.364,1.434,2.614,4.833,8.696l4.46,8.515-7.441-2.507c-4.16-1.504-6.461-2.34-10.719-4.04l-0.582,0.082c-2.925,3.364-3.383,3.883-6.035,6.653l0.168,0.469c2.246,0.535,3.168,0.828,6.613,1.796,4.137,1.25,6.258,1.825,10.211,2.997l11.508,3.625"/><path id="path2968" fill-rule="nonzero" fill="#231f20" d="m136.41,297.66c-2.621-1.965-7.422-6.14-4.906-10.715,3.324-6.003,13.058-1.496,17.449,0.946,1.668,0.918,6.613,3.804,8.953,7.078,0.672,0.879,2.715,3.758,0.883,7.023-0.508,0.946-1.344,1.813-2.336,2.274-4.418,2.207-12.168-1.789-14.832-3.285-1.832-1.004-3.551-2.114-5.211-3.321zm-8.012,7.114c2.145,2.16,4.844,3.996,8.125,5.828,2.559,1.414,5.293,2.625,8.133,3.418,9.172,2.589,16.512-0.301,21.012-8.418,1.031-1.836,4.156-7.75,1.336-14.754-1.754-4.321-5.844-8.621-12.508-12.317-12.914-7.14-23.711-6.011-29.699,4.778-4.27,7.726-3.004,15.129,3.601,21.465"/><path id="path2970" fill-rule="nonzero" fill="#231f20" d="m125.24,349.1c1.043-2.953,1.672-4.668,3.922-10.625,2.844,1.058,5.332,2.054,8.41,3.289,1.164,0.5,7.114,2.926,8.473,3.453l0.492-0.235c1.492-4.128,1.996-5.3,3.738-9.382l-0.25-0.45c-3.906-1.382-9.824-3.543-17.664-6.492-11.449-4.265-14.906-5.722-23.734-9.347l-0.426,0.242-2.328,6.176-3.082,8.218c-1.836,4.539-2.063,4.996-3.2539,7.95l0.2421,0.492c3.3638,1.004,4.3358,1.297,6.8008,2.144l0.496-0.269c1.125-3.332,1.324-3.871,3.668-10.324l0.754-2.008c5.082,1.836,6.242,2.203,10.625,3.91-1.348,3.633-2.793,7.301-4.297,10.937l0.164,0.485c3.004,0.84,3.672,1.039,6.742,2.101l0.508-0.265"/><path id="path2972" fill-rule="nonzero" fill="#231f20" d="m102.83,396.02,11.609,2.043c8.348,1.371,10.598,1.746,16.555,2.839l0.414-0.308c0.567-3.91,0.707-4.91,1.363-8.156l-0.324-0.446c-3.863-0.472-7.207-0.89-11.289-1.468-5.996-0.84-17.621-2.625-21.633-3.258-1.6953-0.289-6.2187-0.996-10.91-1.867l-0.4297,0.328c-0.6641,4.664-0.7773,5.414-1.5703,9.746l0.2969,0.543c3.207,2.25,4.5468,3.211,13.148,9.711l11.891,8.925-12.75-2.05-6.8828-1.168c-3.9062-0.625-4.2851-0.668-7.2031-1.289l-0.4492,0.332c-0.6016,3.886-0.7227,4.765-1.3047,7.961l0.332,0.371c9.3008,1.332,17.887,2.465,20.539,2.84,4.77,0.695,15.926,2.257,23.305,3.574l0.445-0.332c0.594-4.289,0.715-5.039,1.469-9.043l-0.305-0.547c-2.625-1.863-3.281-2.324-11.035-8.242l-15.281-11.039"/><path id="path2974" fill-rule="nonzero" fill="#231f20" d="m107.79,453.18,11.57-0.172,0.043,2.59c-0.027,6.929,0.012,8.539-0.129,11.332l0.383,0.375c3.297-0.317,4.051-0.375,7.496-0.575l0.375-0.382-0.164-10.164c-0.129-7.961-0.156-9.668-0.035-13.672l-0.379-0.328c-5.035,0.211-8.586,0.332-16.789,0.464-9.09,0.157-20.867,0.282-27.598,0l-0.3945,0.325c0.2031,7.957,0.332,16.418,0.2773,23.843l0.3086,0.325c3.0625-0.301,3.8711-0.329,7.0664-0.504l0.375-0.375-0.0351-1.16c-0.0118-1.911-0.1211-3.875-0.1407-5.786l-0.0625-3.675-0.0468-2.364c4.5078-0.058,5.6718-0.093,10.57-0.097l0.043,2.722c0.051,3.321,0.012,5.282-0.039,9.61l0.383,0.379c3.242-0.301,3.672-0.321,6.793-0.5l0.375-0.375c-0.113-3.047-0.164-6.114-0.203-9.164l-0.043-2.672"/><path id="path2976" fill-rule="nonzero" fill="#231f20" d="m100.53,511.18,10.203-3.949c3.262-1.243,6.477-2.407,9.731-3.637,6.785-2.535,7.82-2.91,10.293-3.828l0.293-0.5c-0.942-4.871-1.219-6.317-1.883-11.418l-0.453-0.321c-3.629-0.046-9.438-0.082-13.066-0.128l-10.313-0.172c-2.996-0.043-5.9726-0.153-8.9609-0.192-7.1367-0.179-9.0938-0.269-12.75-0.386l-0.332,0.328c0.7031,4.457,0.832,5.589,1.3984,10.015l0.4297,0.242c3.9101-0.179,5.125-0.218,13.168-0.382,4.6528-0.086,9.2808-0.211,13.832-0.332l8.465-0.129-9.894,3.879c-9.903,3.543-14.196,5.121-23.192,8.246l-0.3047,0.433c0.8711,4.75,1.0117,5.567,1.8008,10.918l0.4453,0.317,2.1836-0.082c12.543-0.34,13.875-0.41,22.332-0.528l10.664,0.071-9.453,3.457c-3.809,1.34-7.586,2.675-11.336,4.082-4.0428,1.508-8.6639,3.203-12.125,4.34l-0.2929,0.507c0.7773,4.25,0.8007,4.828,1.332,8.418l0.4453,0.243c6.293-2.704,12.516-5.383,18.816-8.032l11.066-4.597c1.797-0.789,3.668-1.504,5.516-2.297,2.535-0.992,5.242-2.125,6.453-2.614l0.293-0.5c-0.957-4.8-1.211-6.246-1.926-11.597l-0.453-0.371c-0.84,0.011-1.664,0.097-2.5,0.125-9.129,0.25-10.164,0.3-15.258,0.332l-14.668,0.039"/><path id="path2978" fill-rule="nonzero" fill="#231f20" d="m114.07,595.63c1.457-0.625,3.051-1.391,6.036-2.699,3.312-1.446,20.05-8.582,21.214-9.086,3.672-1.617,6.805-2.989,8.704-5.196,3.933-4.472,1.644-9.722,0.847-11.543-0.91-1.957-1.363-2.667-2.375-4.218l-0.457-0.082c-1.047,0.457-2.078,0.965-3.125,1.418-1.41,0.625-2.703,1.125-4.246,1.715l-0.137,0.492c0.512,0.382,1.207,0.847,1.602,1.793,0.238,0.511,0.328,1.039,0.199,1.578-0.262,2.051-2.371,3.105-6.875,5.062-2.207,0.977-6.098,2.524-8.723,3.668-7.074,2.871-8.019,3.278-16.91,6.895l-0.203,0.504c1.656,3.789,2.215,5.07,3.961,9.562l0.488,0.137"/><path id="path2980" fill-rule="nonzero" fill="#231f20" d="m150.87,611.85,10-5.825,1.324,2.246c3.383,6.047,4.18,7.426,5.43,9.942l0.504,0.14c2.742-1.894,3.367-2.328,6.273-4.175l0.137-0.512-5.121-8.797c-4.004-6.851-4.879-8.348-6.723-11.906l-0.488-0.082c-4.289,2.64-7.332,4.488-14.414,8.625-7.851,4.578-18.047,10.457-24.059,13.527l-0.183,0.453c4.07,6.848,8.324,14.145,11.906,20.664l0.426,0.114c2.523-1.743,3.238-2.168,5.906-3.871l0.153-0.536-0.575-0.992c-0.965-1.629-2.008-3.305-2.984-4.953l-1.848-3.184-1.195-2.042c3.91-2.274,4.902-2.84,9.16-5.258l1.371,2.359c1.672,2.852,2.613,4.606,4.668,8.387l0.535,0.136c2.676-1.847,3.051-2.074,5.676-3.75l0.149-0.511c-1.606-2.613-3.145-5.258-4.684-7.895l-1.344-2.304"/><path id="path2982" fill-rule="nonzero" fill="#231f20" d="m172.5,653.45c1.664,3.637-1.043,6.27-2.59,7.488-1.16,0.911-2.41,1.575-3.785,1.774-1.75,0.16-2.875-0.551-4.141-2.156-0.628-0.801-1.066-1.434-1.609-2.231,5.297-4.262,5.863-4.683,9.961-8.012,0.566,0.598,1.664,1.993,2.164,3.137zm-24.328,1.238c1.227,1.633,7.281,9.493,8.703,11.286,2.039,2.609,4.367,5.218,6.953,6.339,3.879,1.637,8.293,0.246,12.289-2.906,3.633-2.871,4.965-5.797,5.348-7.89,0.48-2.071,0.121-3.645-0.109-4.75l6.812-1.754c4.664-1.176,9.375-2.395,14.125-3.137l0.195-0.481c-3.187-4.226-3.871-5.203-6.363-8.75l-0.617-0.171c-2.59,0.824-3.469,1.136-14.176,4.316l-3.879,1.137c-0.664-0.938-0.785-1.078-1.492-1.989,4.539-3.578,9.031-7.129,13.793-10.421l0.117-0.485c-3.086-3.808-3.512-4.453-6.172-8.012l-0.535-0.074c-6.258,5.106-12.164,9.942-15.664,12.715-3.434,2.707-6.875,5.34-10.41,8.051-3.965,3.066-5.801,4.449-8.809,6.578l-0.109,0.398"/><path id="path2984" fill-rule="nonzero" fill="#231f20" d="m203.62,701.91c-2.082-0.14-4.594-0.344-7.172-2.808-2.363-2.239-2.547-5.071-0.664-7.047,1.406-1.473,3.094-1.785,5.625-1.489,0.863,0.032,4.918,0.743,5.832,0.899,4.828,0.746,9.199,0.855,13.582-3.746,2.926-3.078,4.074-6.481,4.176-9.184,0.203-5-2.5-8.699-5.629-11.683-1.793-1.723-4.762-4.036-8.297-5.114l-0.715,0.2c-0.871,0.996-1.746,2.101-2.664,3.156-0.793,0.918-1.578,1.844-2.414,2.722l0.242,0.485c2.969,0.011,5.723,1.164,7.844,3.179,3.465,3.297,2.047,6.622,0.547,8.184-1.918,2.027-4.258,1.891-7.918,1.305l-3.207-0.508c-4.012-0.566-9.019-1.309-13.844,3.75-3.16,3.312-4.074,6.75-3.965,9.32,0.141,4.168,2.598,7.391,5.18,9.852,2.34,2.246,5.129,4.121,8.254,5.062l0.539-0.172c0.836-1.07,1.668-2.125,2.539-3.125l2.363-2.753-0.234-0.485"/><path id="path2986" fill-rule="nonzero" fill="#231f20" d="m239.08,710.06,6.832-9.347,2.09,1.535c5.535,4.176,6.824,5.113,8.973,6.93l0.519-0.082c1.75-2.832,2.156-3.489,4.074-6.34l-0.082-0.531-8.234-5.989c-6.422-4.683-7.801-5.695-10.926-8.211l-0.473,0.121c-2.863,4.133-4.906,7.047-9.742,13.672-5.367,7.36-12.34,16.825-16.621,22.032l0.035,0.5c6.453,4.632,13.289,9.613,19.18,14.148l0.453-0.059c1.586-2.613,2.082-3.289,3.84-5.937l-0.086-0.531-0.918-0.661c-1.543-1.136-3.168-2.246-4.711-3.371l-2.973-2.168-1.906-1.394c2.664-3.637,3.336-4.57,6.262-8.488l2.207,1.613c2.672,1.945,4.242,3.156,7.66,5.808l0.531-0.085c1.711-2.766,1.969-3.129,3.704-5.723l-0.082-0.531c-2.52-1.739-4.981-3.532-7.442-5.34l-2.164-1.571"/><path id="path2988" fill-rule="nonzero" fill="#231f20" d="m281.12,734.19c0.039-0.203,6.402-11.652,8.457-15.152l-0.164-0.531c-4.348-2.363-5.465-2.961-9.059-5.149l-0.527,0.168c-2.582,5.539-7.39,14.289-7.914,15.227l-9.961,7.699c-1.664,1.195-3.297,2.473-4.945,3.75-5.278,4.149-5.809,4.578-8.551,6.567l-0.012,0.421c4.258,2.395,5.012,2.871,9.289,5.551l0.555-0.121c1.16-1.043,2.246-1.961,7.438-6.594l7.355-6.222-0.836,7.797c-0.582,4.39-0.883,6.836-1.621,11.359l0.211,0.547c3.91,2.125,4.535,2.457,7.785,4.445l0.449-0.269c0.012-2.305,0.102-3.27,0.305-6.848,0.332-4.301,0.422-6.488,0.703-10.609l1.043-12.036"/><path id="path2990" fill-rule="nonzero" fill="#7a7778" d="m373.19,747.46c-5.106-0.977-6.485-1.344-10.626-2.422l-0.496,0.336c-1.484,8.156-2.652,14.09-4.398,22.48-0.766,3.715-2.047,9.567-2.805,13.2-2.035-0.567-2.297-0.68-4.328-1.328l-0.496,0.335c-0.625,3.379-0.707,3.723-1.293,6.903l0.336,0.496c5.621,1.957,6.543,2.297,14.414,5.227l0.57-0.301c0.598-2.895,3.313-17.055,4-20.278,1.676-8.062,3.5-16.136,5.512-24.121l-0.39-0.527"/><path id="path2992" fill-rule="nonzero" fill="#7a7778" d="m401.58,788.2-4.055-0.347c-5.031-0.512-6.996-0.684-13.207-1.446l-0.457,0.395c0,3.238,0.043,4.387-0.086,8.254l0.457,0.461c2.454,0.129,5.18,0.379,7.004,0.539l9.719,0.84c6.66,0.66,7.629,0.746,11.957,1.25l0.406-0.461c-0.082-0.629-0.246-1.211-0.406-1.868-1.172-5.113-1.469-6.542-2.719-12.441l-2.988-13.668c-2.004-10.039-2.496-12.625-3.168-17.765l-0.519-0.477c-4.774-0.344-6.11-0.461-11.25-1.191l-0.473,0.39c1.035,3.61,1.308,4.551,3.285,12.5,0.832,3.442,1.742,6.844,2.629,10.313l3.871,14.722"/><path id="path2994" fill-rule="nonzero" fill="#7a7778" d="m436.65,766.2c0.184-2.383,0.93-6.785,4.438-6.918,0.699-0.031,1.41,0.161,1.918,0.5,2.527,1.45,2.812,5.227,2.863,6.649,0.195,5.039-1.84,7.015-4.164,7.105-2.594,0.114-4.367-1.875-5.015-2.551-0.067-1.601-0.196-3.222-0.04-4.785zm16.497,21.321c-1.985,1.761-4.063,2.691-6.653,2.789-8.367,0.324-9.121-8.508-9.246-10.27,1,0.664,3.457,2.469,7.613,2.309,7.161-0.262,11.786-6.285,11.434-15.203-0.348-9.551-5.879-16.086-15.711-15.715-1.891,0.062-3.789,0.426-5.508,1.117-6.992,2.945-9.59,10.422-9.195,21.242,0.121,3.156,0.449,6.25,1.199,9.317,1.336,5.425,3.586,8.925,5.703,10.957,3.426,3.328,7.84,4.625,13.043,4.429,4.492-0.172,6.969-1.308,8.297-1.933l0.457-0.582c-0.414-3.629-0.422-4.047-0.789-8.059l-0.644-0.398"/><path id="path2996" fill-rule="nonzero" fill="#7a7778" d="m483.7,761.51c-0.168-2.403-0.086-6.844,3.367-7.5,0.676-0.141,1.418-0.055,1.965,0.203,2.707,1.047,3.547,4.75,3.801,6.137,0.957,4.968-0.758,7.218-3.043,7.672-2.547,0.48-4.586-1.219-5.336-1.79-0.305-1.589-0.676-3.16-0.754-4.722zm19.489,18.621c-1.696,2.035-3.61,3.254-6.157,3.742-8.215,1.559-10.285-7.051-10.679-8.773,1.097,0.507,3.8,1.925,7.859,1.156,7.059-1.332,10.734-7.981,9.066-16.75-1.785-9.387-8.238-15.035-17.902-13.192-1.852,0.348-3.672,0.977-5.273,1.93-6.481,3.949-7.938,11.735-5.907,22.367,0.59,3.118,1.375,6.106,2.559,9.024,2.141,5.176,4.871,8.308,7.277,10,3.883,2.765,8.449,3.414,13.547,2.433,4.418-0.839,6.707-2.343,7.918-3.14l0.371-0.653c-0.957-3.543-1.039-3.953-1.988-7.843l-0.691-0.301"/><path id="path2998" stroke-linejoin="miter" style="stroke-dasharray:none;" d="m61.953,451.14c0,202.54,164.19,366.75,366.73,366.75s366.73-164.22,366.73-366.75c0-202.54-164.18-366.74-366.73-366.74-202.54,0-366.73,164.2-366.73,366.74z" stroke="#e51635" stroke-linecap="butt" stroke-miterlimit="3.8636899" stroke-width="8.32359028" fill="none"/><path id="path3000" fill-rule="evenodd" fill="#7a7778" d="m21.582,439.7c-7.7929,3.957-15.211,5.817-19.883,13.356-4.582,9.769,1.543,25.64,1.543,25.64,5.9219-10.289,12.211-13.218,18.336-15.511,7.793-3.957,15.176-5.946,19.836-13.492,4.582-9.766-1.5118-25.665-1.5118-25.665-5.9453,10.297-12.203,13.375-18.32,15.672"/><path id="path3002" fill-rule="evenodd" fill="#7a7778" d="M22.621,482.3c-7.348,4.76-14.539,7.38-18.371,15.38-3.5469,10.18,4.2031,25.34,4.2031,25.34,4.8049-10.85,10.774-14.42,16.609-17.34,7.3359-4.758,14.477-7.504,18.34-15.5,3.5118-10.207-4.1992-25.36-4.1992-25.36-4.832,10.86-10.746,14.571-16.582,17.485"/><path id="path3004" fill-rule="evenodd" fill="#7a7778" d="m28.106,524.59c-6.8164,5.472-13.691,8.836-16.695,17.176-2.4219,10.535,6.8437,24.792,6.8437,24.792,3.6602-11.296,9.2031-15.472,14.707-19.007,6.7852-5.493,13.621-8.961,16.621-17.325,2.4453-10.507-6.8398-24.785-6.8398-24.785-3.6602,11.317-9.1563,15.621-14.637,19.149"/><path id="path3006" fill-rule="evenodd" fill="#7a7778" d="m37.984,566.06c-6.1992,6.168-12.707,10.215-14.816,18.84-1.3047,10.707,9.4062,23.917,9.4062,23.917,2.461-11.621,7.543-16.335,12.633-20.421,6.1992-6.168,12.625-10.332,14.703-18.961,1.3398-10.715-9.3477-23.942-9.3477-23.942-2.4805,11.653-7.4922,16.489-12.578,20.567"/><path id="path3008" fill-rule="evenodd" fill="#7a7778" d="m52.117,606.25c-5.5078,6.789-11.539,11.504-12.746,20.285-0.2031,10.801,11.836,22.82,11.836,22.82,1.25-11.824,5.7969-17.054,10.445-21.629,5.5118-6.789,11.469-11.617,12.668-20.414,0.207-10.796-11.84-22.804-11.84-22.804-1.2344,11.8-5.7071,17.168-10.363,21.742"/><path id="path3010" fill-rule="evenodd" fill="#7a7778" d="m70.41,644.78c-4.7891,7.313-10.289,12.641-10.559,21.508,0.9336,10.746,14.141,21.449,14.141,21.449,0-11.879,3.9844-17.558,8.125-22.617,4.793-7.301,10.207-12.75,10.461-21.609-0.914-10.75-14.16-21.457-14.16-21.457,0,11.887-3.8789,17.672-8.0078,22.726"/><path id="path3012" fill-rule="evenodd" fill="#7a7778" d="m92.613,681.16c-3.9922,7.789-8.9063,13.645-8.25,22.496,2.0469,10.586,16.305,19.848,16.305,19.848-1.25-11.82,2.121-17.871,5.711-23.336,3.992-7.781,8.82-13.734,8.156-22.574-2.039-10.598-16.308-19.875-16.308-19.875,1.2265,11.836-2.0235,18-5.6133,23.441"/><path id="path3014" fill-rule="evenodd" fill="#7a7778" d="m118.48,715.04c-3.152,8.153-7.437,14.492-5.832,23.207,3.129,10.344,18.293,18.07,18.293,18.07-2.484-11.64,0.243-18.031,3.243-23.808,3.14-8.172,7.316-14.598,5.722-23.324-3.133-10.321-18.289-18.059-18.289-18.059,2.461,11.637-0.133,18.117-3.137,23.914"/><path id="path3016" fill-rule="evenodd" fill="#7a7778" d="m147.75,746.01c-2.266,8.433-5.879,15.187-3.379,23.715,4.203,9.941,20.078,16.031,20.078,16.031-3.668-11.313-1.633-17.938,0.75-24.016,2.281-8.437,5.754-15.277,3.258-23.777-4.215-9.941-20.094-16.051-20.094-16.051,3.695,11.309,1.778,18.016-0.613,24.098"/><path id="path3018" fill-rule="evenodd" fill="#7a7778" d="m180.12,773.75c-1.375,8.641-4.254,15.738-0.875,23.934,5.207,9.453,21.629,13.859,21.629,13.859-4.836-10.867-3.504-17.66-1.766-23.957,1.387-8.637,4.137-15.813,0.762-24.02-5.223-9.445-21.641-13.843-21.641-13.843,4.805,10.855,3.625,17.75,1.891,24.027"/><path id="path3020" fill-rule="evenodd" fill="#7a7778" d="m215.2,797.97c-0.469,8.722-2.59,16.082,1.621,23.886,6.18,8.864,22.965,11.524,22.965,11.524-5.934-10.313-5.336-17.207-4.254-23.656,0.461-8.711,2.457-16.129-1.746-23.95-6.176-8.839-23-11.504-23-11.504,5.953,10.289,5.496,17.282,4.414,23.7"/><path id="path3022" fill-rule="evenodd" fill="#7a7778" d="m252.62,818.39c0.453,8.722-0.887,16.257,4.113,23.586,7.09,8.16,24.051,9.043,24.051,9.043-6.973-9.618-7.094-16.547-6.707-23.055-0.457-8.742,0.746-16.32-4.25-23.645-7.086-8.136-24.047-9.043-24.047-9.043,6.961,9.618,7.242,16.59,6.84,23.114"/><path id="path3024" fill-rule="evenodd" fill="#7a7778" d="m291.98,834.77c1.348,8.652,0.809,16.285,6.543,23.039,7.887,7.371,24.883,6.492,24.883,6.492-7.953-8.836-8.82-15.735-9.113-22.246-1.34-8.625-0.934-16.293-6.672-23.067-7.887-7.351-24.879-6.472-24.879-6.472,7.949,8.832,8.953,15.746,9.238,22.254"/><path id="path3026" fill-rule="evenodd" fill="#7a7778" d="m332.83,846.97c2.246,8.457,2.5,16.093,8.91,22.211,8.613,6.515,25.422,3.847,25.422,3.847-8.844-7.953-10.387-14.715-11.379-21.16-2.246-8.437-2.66-16.105-9.047-22.226-8.617-6.504-25.422-3.86-25.422-3.86,8.829,7.953,10.539,14.731,11.516,21.188"/><path id="path3028" fill-rule="evenodd" fill="#7a7778" d="m374.71,854.82c3.129,8.164,4.199,15.743,11.207,21.161,9.246,5.578,25.672,1.168,25.672,1.168-9.606-6.969-11.879-13.54-13.504-19.84-3.125-8.168-4.332-15.75-11.348-21.168-9.238-5.578-25.672-1.164-25.672-1.164,9.626,6.972,12.012,13.539,13.645,19.843"/><path id="path3030" fill-rule="evenodd" fill="#7a7778" d="m417.21,858.23c3.949,7.817,5.793,15.239,13.355,19.907,9.766,4.574,25.641-1.539,25.641-1.539-10.289-5.926-13.219-12.215-15.516-18.34-3.945-7.789-5.945-15.203-13.488-19.84-9.765-4.578-25.66,1.512-25.66,1.512,10.312,5.925,13.367,12.207,15.668,18.3"/><path id="path3032" fill-rule="evenodd" fill="#7a7778" d="m459.83,857.22c4.742,7.332,7.36,14.539,15.34,18.375,10.227,3.539,25.367-4.207,25.367-4.207-10.844-4.832-14.43-10.774-17.347-16.61-4.75-7.343-7.52-14.508-15.497-18.351-10.195-3.524-25.363,4.211-25.363,4.211,10.875,4.832,14.586,10.746,17.5,16.582"/><path id="path3034" fill-rule="evenodd" fill="#7a7778" d="m502.11,851.73c5.469,6.801,8.832,13.7,17.176,16.692,10.504,2.43,24.793-6.828,24.793-6.828-11.336-3.688-15.5-9.211-19-14.707-5.492-6.825-8.969-13.629-17.336-16.629-10.496-2.449-24.781,6.808-24.781,6.808,11.324,3.696,15.625,9.176,19.148,14.664"/><path id="path3036" fill-rule="evenodd" fill="#7a7778" d="m543.58,841.86c6.168,6.204,10.211,12.7,18.828,14.797,10.707,1.328,23.926-9.375,23.926-9.375-11.625-2.472-16.348-7.547-20.43-12.636-6.156-6.207-10.359-12.629-18.953-14.739-10.711-1.312-23.953,9.395-23.953,9.395,11.633,2.465,16.508,7.473,20.582,12.558"/><path id="path3038" fill-rule="evenodd" fill="#7a7778" d="m583.78,827.72c6.793,5.515,11.473,11.551,20.289,12.754,10.797,0.207,22.805-11.836,22.805-11.836-11.809-1.25-17.043-5.793-21.629-10.449-6.785-5.508-11.621-11.465-20.414-12.661-10.785-0.211-22.801,11.821-22.801,11.821,11.805,1.257,17.176,5.722,21.75,10.371"/><path id="path3040" fill-rule="evenodd" fill="#7a7778" d="m622.29,809.44c7.328,4.778,12.621,10.282,21.496,10.567,10.758-0.953,21.457-14.168,21.457-14.168-11.875,0-17.582-3.985-22.597-8.125-7.329-4.778-12.743-10.184-21.606-10.457-10.766,0.933-21.465,14.168-21.465,14.168,11.879,0,17.672,3.875,22.715,8.015"/><path id="path3042" fill-rule="evenodd" fill="#7a7778" d="m658.7,787.25c7.766,3.977,13.629,8.902,22.465,8.238,10.586-2.05,19.871-16.297,19.871-16.297-11.828,1.239-17.906-2.14-23.359-5.734-7.762-3.984-13.727-8.809-22.559-8.141-10.617,2.047-19.871,16.309-19.871,16.309,11.805-1.238,17.996,2.023,23.453,5.625"/><path id="path3044" fill-rule="evenodd" fill="#7a7778" d="m692.54,761.37c8.16,3.141,14.492,7.426,23.234,5.856,10.336-3.157,18.051-18.317,18.051-18.317-11.625,2.492-18.008-0.23-23.828-3.242-8.129-3.129-14.562-7.305-23.297-5.738-10.332,3.148-18.043,18.301-18.043,18.301,11.629-2.454,18.086,0.132,23.883,3.14"/><path id="path3046" fill-rule="evenodd" fill="#7a7778" d="m723.54,732.09c8.43,2.266,15.199,5.883,23.707,3.383,9.949-4.203,16.035-20.067,16.035-20.067-11.312,3.664-17.945,1.629-24.023-0.757-8.426-2.278-15.266-5.747-23.762-3.247-9.961,4.204-16.039,20.063-16.039,20.063,11.289-3.672,18.004-1.766,24.082,0.625"/><path id="path3048" fill-rule="evenodd" fill="#7a7778" d="m751.29,699.72c8.621,1.394,15.707,4.265,23.914,0.894,9.461-5.207,13.859-21.648,13.859-21.648-10.863,4.844-17.667,3.508-23.945,1.789-8.664-1.395-15.801-4.129-24.004-0.777-9.449,5.222-13.867,21.656-13.867,21.656,10.875-4.836,17.75-3.641,24.043-1.914"/><path id="path3050" fill-rule="evenodd" fill="#7a7778" d="m775.49,664.64c8.719,0.476,16.09,2.605,23.906-1.602,8.848-6.191,11.516-22.981,11.516-22.981-10.328,5.938-17.219,5.325-23.668,4.258-8.707-0.472-16.125-2.441-23.949,1.746-8.844,6.184-11.481,22.981-11.481,22.981,10.293-5.942,17.227-5.461,23.676-4.402"/><path id="path3052" fill-rule="evenodd" fill="#7a7778" d="m795.91,627.22c8.738-0.43,16.277,0.906,23.582-4.094,8.172-7.074,9.051-24.063,9.051-24.063-9.598,6.989-16.543,7.106-23.051,6.735-8.75,0.426-16.308-0.766-23.641,4.234-8.16,7.07-9.039,24.063-9.039,24.063,9.594-6.993,16.582-7.246,23.098-6.875"/><path id="path3054" fill-rule="evenodd" fill="#7a7778" d="m812.32,587.89c8.637-1.34,16.258-0.797,23.035-6.539,7.379-7.903,6.477-24.879,6.477-24.879-8.84,7.961-15.727,8.797-22.254,9.09-8.621,1.339-16.293,0.957-23.051,6.675-7.371,7.903-6.488,24.879-6.488,24.879,8.84-7.937,15.746-8.933,22.281-9.226"/><path id="path3056" fill-rule="evenodd" fill="#7a7778" d="m824.5,547.03c8.457-2.23,16.109-2.48,22.234-8.902,6.512-8.621,3.844-25.414,3.844-25.414-7.953,8.84-14.715,10.383-21.16,11.355-8.457,2.242-16.129,2.653-22.246,9.071-6.504,8.621-3.84,25.414-3.84,25.414,7.957-8.832,14.715-10.543,21.168-11.524"/><path id="path3058" fill-rule="evenodd" fill="#7a7778" d="m832.37,505.14c8.16-3.121,15.742-4.164,21.168-11.199,5.57-9.243,1.172-25.665,1.172-25.665-7.004,9.614-13.559,11.864-19.879,13.524-8.164,3.105-15.746,4.312-21.168,11.316-5.578,9.274-1.164,25.692-1.164,25.692,6.996-9.625,13.543-12.028,19.871-13.668"/><path id="path3060" fill-rule="evenodd" fill="#7a7778" d="m835.78,462.64c7.797-3.946,15.242-5.782,19.883-13.332,4.578-9.786-1.516-25.661-1.516-25.661-5.945,10.293-12.234,13.239-18.332,15.528-7.812,3.937-15.211,5.933-19.859,13.476-4.586,9.782,1.523,25.66,1.523,25.66,5.934-10.3,12.184-13.374,18.301-15.671"/><path id="path3062" fill-rule="evenodd" fill="#7a7778" d="m834.75,420.05c7.371-4.746,14.547-7.371,18.402-15.363,3.516-10.2-4.203-25.348-4.203-25.348-4.836,10.84-10.777,14.426-16.617,17.344-7.34,4.746-14.5,7.496-18.34,15.496-3.535,10.207,4.18,25.347,4.18,25.347,4.855-10.847,10.742-14.558,16.578-17.476"/><path id="path3064" fill-rule="evenodd" fill="#7a7778" d="m829.28,377.77c6.82-5.496,13.699-8.836,16.672-17.176,2.449-10.535-6.836-24.785-6.836-24.785-3.641,11.297-9.211,15.461-14.707,18.976-6.797,5.492-13.629,8.985-16.621,17.324-2.438,10.528,6.824,24.786,6.824,24.786,3.668-11.293,9.172-15.621,14.668-19.125"/><path id="path3066" fill-rule="evenodd" fill="#7a7778" d="m819.41,336.3c6.199-6.172,12.703-10.239,14.789-18.832,1.332-10.715-9.375-23.946-9.375-23.946-2.461,11.621-7.539,16.36-12.637,20.418-6.195,6.192-12.625,10.364-14.734,18.981-1.309,10.711,9.375,23.922,9.375,23.922,2.492-11.621,7.492-16.489,12.582-20.543"/><path id="path3068" fill-rule="evenodd" fill="#7a7778" d="m805.29,296.09c5.496-6.793,11.543-11.5,12.715-20.289,0.203-10.789-11.805-22.821-11.805-22.821-1.254,11.821-5.804,17.067-10.453,21.649-5.504,6.769-11.469,11.594-12.664,20.383-0.184,10.789,11.828,22.832,11.828,22.832,1.246-11.828,5.711-17.172,10.379-21.754"/><path id="path3070" fill-rule="evenodd" fill="#7a7778" d="m787,257.57c4.781-7.328,10.293-12.632,10.547-21.496-0.918-10.761-14.137-21.461-14.137-21.461,0,11.879-3.992,17.571-8.117,22.614-4.785,7.332-10.184,12.75-10.461,21.625,0.926,10.742,14.152,21.457,14.152,21.457,0-11.903,3.891-17.692,8.016-22.739"/><path id="path3072" fill-rule="evenodd" fill="#7a7778" d="m764.82,221.18c3.969-7.789,8.91-13.629,8.25-22.493-2.05-10.593-16.324-19.867-16.324-19.867,1.246,11.821-2.129,17.899-5.707,23.356-3.996,7.765-8.828,13.726-8.164,22.582,2.063,10.586,16.328,19.851,16.328,19.851-1.25-11.808,2.004-17.976,5.617-23.429"/><path id="path3074" fill-rule="evenodd" fill="#7a7778" d="m738.94,187.3c3.133-8.16,7.426-14.5,5.84-23.235-3.125-10.304-18.297-18.043-18.297-18.043,2.465,11.625-0.242,18.028-3.242,23.821-3.168,8.14-7.332,14.582-5.75,23.297,3.156,10.328,18.297,18.05,18.297,18.05-2.465-11.625,0.121-18.097,3.152-23.89"/><path id="path3076" fill-rule="evenodd" fill="#7a7778" d="m709.66,156.31c2.285-8.421,5.871-15.175,3.371-23.679-4.195-9.953-20.074-16.039-20.074-16.039,3.664,11.293,1.656,17.929-0.731,24.011-2.285,8.418-5.777,15.254-3.277,23.782,4.211,9.929,20.086,16.019,20.086,16.019-3.672-11.304-1.754-18.019,0.625-24.094"/><path id="path3078" fill-rule="evenodd" fill="#7a7778" d="m677.29,128.57c1.418-8.632,4.289-15.718,0.914-23.925-5.223-9.4613-21.66-13.86-21.66-13.86,4.836,10.871,3.519,17.664,1.785,23.977-1.39,8.633-4.14,15.801-0.789,23.972,5.25,9.458,21.664,13.868,21.664,13.868-4.832-10.868-3.621-17.739-1.914-24.032"/><path id="path3080" fill-rule="evenodd" fill="#7a7778" d="m642.25,104.35c0.457-8.7387,2.578-16.079-1.633-23.887-6.175-8.8671-22.968-11.523-22.968-11.523,5.933,10.32,5.335,17.207,4.265,23.656-0.5,8.7143-2.457,16.129,1.75,23.957,6.164,8.832,22.961,11.504,22.961,11.504-5.922-10.293-5.461-17.254-4.375-23.707"/><path id="path3082" fill-rule="evenodd" fill="#7a7778" d="m604.81,83.93c-0.441-8.7149,0.891-16.25-4.109-23.582-7.055-8.168-24.055-9.0469-24.055-9.0469,7,9.6054,7.125,16.547,6.719,23.047,0.449,8.75-0.746,16.305,4.25,23.633,7.051,8.1675,24.047,9.0745,24.047,9.0745-6.976-9.6214-7.25-16.586-6.852-23.125"/><path id="path3084" fill-rule="evenodd" fill="#7a7778" d="m565.46,67.527c-1.34-8.6289-0.797-16.262-6.551-23.016-7.871-7.3789-24.867-6.5-24.867-6.5,7.953,8.836,8.793,15.723,9.078,22.246,1.367,8.6289,0.961,16.297,6.699,23.055,7.883,7.3711,24.887,6.4922,24.887,6.4922-7.961-8.832-8.937-15.75-9.246-22.277"/><path id="path3086" fill-rule="evenodd" fill="#7a7778" d="m524.62,55.348c-2.246-8.4571-2.5-16.113-8.914-22.238-8.625-6.5078-25.414-3.8477-25.414-3.8477,8.832,7.961,10.399,14.707,11.375,21.168,2.238,8.457,2.629,16.098,9.066,22.246,8.602,6.5039,25.391,3.8398,25.391,3.8398-8.832-7.957-10.539-14.707-11.504-21.168"/><path id="path3088" fill-rule="evenodd" fill="#7a7778" d="m482.73,47.473c-3.117-8.1641-4.191-15.742-11.199-21.16-9.242-5.5781-25.668-1.1758-25.668-1.1758,9.59,6.9961,11.875,13.547,13.5,19.852,3.133,8.1875,4.332,15.77,11.34,21.168,9.254,5.5743,25.668,1.1915,25.668,1.1915-9.594-6.9961-12-13.543-13.641-19.875"/><path id="path3090" fill-rule="evenodd" fill="#7a7778" d="m440.24,44.055c-3.949-7.793-5.797-15.242-13.328-19.898-9.797-4.5624-25.672,1.5235-25.672,1.5235,10.301,5.9297,13.215,12.215,15.508,18.34,3.957,7.7969,5.945,15.203,13.488,19.867,9.762,4.5821,25.672-1.5273,25.672-1.5273-10.297-5.9336-13.367-12.207-15.668-18.305"/><path id="path3092" fill-rule="evenodd" fill="#7a7778" d="m397.62,45.066c-4.75-7.3476-7.371-14.539-15.332-18.387-10.211-3.5352-25.375,4.2031-25.375,4.2031,10.863,4.8399,14.438,10.773,17.359,16.606,4.727,7.3594,7.473,14.52,15.473,18.363,10.211,3.539,25.367-4.2071,25.367-4.2071-10.867-4.8242-14.578-10.742-17.492-16.578"/><path id="path3094" fill-rule="evenodd" fill="#7a7778" d="m355.36,50.551c-5.496-6.8281-8.832-13.703-17.191-16.688-10.504-2.4375-24.785,6.8203-24.785,6.8203,11.309,3.6719,15.484,9.2109,18.992,14.707,5.5,6.8047,8.984,13.629,17.324,16.625,10.508,2.4571,24.782-6.7968,24.782-6.7968-11.313-3.7032-15.606-9.1641-19.122-14.668"/><path id="path3096" fill-rule="evenodd" fill="#7a7778" d="m313.87,60.394c-6.168-6.1797-10.211-12.695-18.832-14.789-10.707-1.336-23.922,9.3711-23.922,9.3711,11.625,2.4687,16.363,7.5429,20.422,12.66,6.164,6.1875,10.332,12.629,18.957,14.711,10.711,1.3398,23.945-9.3672,23.945-9.3672-11.652-2.4688-16.488-7.4727-20.57-12.586"/><path id="path3098" fill-rule="evenodd" fill="#7a7778" d="m273.66,74.551c-6.765-5.5352-11.492-11.566-20.281-12.742-10.774-0.2109-22.813,11.828-22.813,11.828,11.832,1.2266,17.055,5.793,21.641,10.426,6.781,5.5313,11.617,11.488,20.395,12.66,10.777,0.207,22.812-11.816,22.812-11.816-11.828-1.2226-17.168-5.7148-21.754-10.355"/><path id="path3100" fill-rule="evenodd" fill="#7a7778" d="m235.16,92.809c-7.328-4.7774-12.633-10.293-21.496-10.547-10.765,0.918-21.453,14.129-21.453,14.129,11.875,0,17.563,3.9964,22.605,8.1364,7.305,4.782,12.731,10.196,21.598,10.461,10.754-0.933,21.461-14.144,21.461-14.144-11.879,0-17.676-3.8948-22.715-8.0354"/><path id="path3102" fill-rule="evenodd" fill="#7a7778" d="m198.75,115.02c-7.762-4.004-13.625-8.922-22.473-8.258-10.605,2.047-19.863,16.301-19.863,16.301,11.82-1.243,17.875,2.121,23.336,5.714,7.789,3.993,13.75,8.825,22.578,8.157,10.59-2.043,19.871-16.317,19.871-16.317-11.824,1.242-17.992-2.015-23.449-5.597"/><path id="path3104" fill-rule="evenodd" fill="#7a7778" d="m164.87,140.86c-8.133-3.144-14.496-7.425-23.211-5.847-10.332,3.136-18.047,18.296-18.047,18.296,11.629-2.468,18.008,0.247,23.797,3.247,8.16,3.164,14.586,7.328,23.328,5.746,10.309-3.129,18.035-18.289,18.035-18.289-11.609,2.453-18.085-0.129-23.902-3.153"/><path id="path3106" fill-rule="evenodd" fill="#7a7778" d="m133.91,170.14c-8.457-2.286-15.203-5.879-23.711-3.379-9.957,4.183-16.035,20.086-16.035,20.086,11.289-3.672,17.914-1.657,24,0.726,8.445,2.281,15.277,5.77,23.785,3.27,9.953-4.199,16.035-20.082,16.035-20.082-11.285,3.672-18.004,1.758-24.074-0.621"/><path id="path3108" fill-rule="evenodd" fill="#7a7778" d="m106.15,202.49c-8.6285-1.383-15.734-4.261-23.941-0.89-9.4648,5.211-13.848,21.664-13.848,21.664,10.867-4.856,17.68-3.532,23.965-1.793,8.6208,1.414,15.785,4.136,23.988,0.789,9.446-5.231,13.848-21.66,13.848-21.66-10.863,4.836-17.742,3.632-24.012,1.89"/><path id="path3110" fill-rule="evenodd" fill="#7a7778" d="m81.918,237.56c-8.7149-0.457-16.086-2.586-23.883,1.621-8.8672,6.172-11.531,22.972-11.531,22.972,10.312-5.929,17.207-5.332,23.656-4.261,8.7109,0.492,16.129,2.461,23.922-1.743,8.867-6.175,11.531-22.968,11.531-22.968-10.289,5.922-17.246,5.457-23.695,4.379"/><path id="path3112" fill-rule="evenodd" fill="#7a7778" d="m61.492,274.98c-8.711,0.446-16.25-0.886-23.582,4.114-8.1641,7.05-9.0547,24.043-9.0547,24.043,9.6054-6.993,16.555-7.09,23.059-6.711,8.7461-0.422,16.324,0.754,23.621-4.25,8.1718-7.047,9.0781-24.039,9.0781-24.039-9.6289,6.992-16.617,7.246-23.121,6.843"/><path id="path3114" fill-rule="evenodd" fill="#7a7778" d="m45.113,314.34c-8.6563,1.34-16.285,0.797-23.039,6.523-7.3828,7.903-6.4922,24.875-6.4922,24.875,8.8321-7.933,15.707-8.797,22.242-9.086,8.6211-1.347,16.281-0.953,23.043-6.679,7.3789-7.879,6.4922-24.871,6.4922-24.871-8.8282,7.957-15.738,8.945-22.246,9.238"/><path id="path3116" fill-rule="evenodd" fill="#7a7778" d="m32.902,355.18c-8.4492,2.254-16.117,2.5-22.238,8.918-6.5039,8.597-3.8438,25.414-3.8438,25.414,7.9609-8.832,14.719-10.407,21.176-11.371,8.4375-2.25,16.09-2.657,22.238-9.047,6.5-8.621,3.8437-25.41,3.8437-25.41-7.957,8.828-14.715,10.511-21.176,11.496"/><path id="path3118" fill-rule="evenodd" fill="#7a7778" d="m25.035,397.06c-8.1719,3.126-15.746,4.2-21.168,11.2-5.582,9.254-1.1602,25.676-1.1602,25.676,6.9805-9.622,13.539-11.883,19.855-13.508,8.168-3.125,15.746-4.325,21.168-11.332,5.5625-9.25,1.1718-25.668,1.1718-25.668-6.9921,9.593-13.551,12-19.867,13.632"/><path id="path3120" fill-rule="nonzero" fill="#e51635" d="m430.37,736.94c24.375-0.141,47.996-3.325,70.567-9.204l-57.399-167.44-2.809,0.379-10.359,176.26zm73.84-10.086c23.246-6.36,45.309-15.567,65.785-27.227l-98.785-146.86-2.633,1.086,35.633,173zm68.727-28.942c20.597-12.07,39.558-26.644,56.472-43.305l-133.41-116.28-2.254,1.746,79.192,157.84zm58.882-45.719c16.7-16.875,31.301-35.812,43.41-56.39l-159-77.828-1.734,2.261,117.32,131.96zm45.118-59.343c11.683-20.461,20.957-42.504,27.335-65.746l-173.81-34.032-1.066,2.653,147.54,97.125zm28.218-69.004c5.918-22.578,9.137-46.242,9.309-70.617l-176.68,12.121-0.351,2.828,167.72,55.668zm9.309-73.996c-0.094-24.407-3.266-48.078-9.11-70.668l-167.66,57.461,0.391,2.836,176.38,10.371zm-10-73.918c-6.317-23.289-15.516-45.371-27.184-65.875l-147.12,98.914,1.117,2.633,173.19-35.672zm-28.883-68.817c-12.047-20.644-26.641-39.64-43.336-56.586l-116.51,133.65,1.758,2.25,158.09-79.317zm-45.715-58.972c-16.906-16.743-35.875-31.379-56.5-43.508l-77.996,159.34,2.285,1.73,132.21-117.56zm-59.42-45.21c-20.48-11.71-42.59-21-65.88-27.38l-34.086,174.17,2.629,1.082,97.34-147.87zm-69.1-28.25c-22.609-5.946-46.316-9.168-70.742-9.332l12.129,177.04,2.832,0.379,55.781-168.09zm-74.082-9.332c-24.441,0.125-48.152,3.304-70.781,9.203l57.625,167.86,2.781-0.273,10.375-176.78zm-74.019,10.047c-23.297,6.367-45.422,15.613-65.934,27.3l99.059,147.32,2.644-1.09-35.769-173.54zm-68.836,28.992c-20.672,12.097-39.672,26.722-56.602,43.461l133.77,116.62,2.27-1.754-79.434-158.33zm-58.969,45.832c-16.715,16.922-31.363,35.918-43.472,56.59l159.39,78,1.75-2.258-117.67-132.33zm-45.137,59.469c-11.726,20.527-20.98,42.628-27.328,65.921l174.13,34.114,1.086-2.653-147.89-97.382zm-28.195,69.16c-5.883,22.617-9.09,46.289-9.222,70.714l176.9-12.124,0.363-2.829-168.04-55.761zm-9.222,74.082c0.148,24.418,3.351,48.101,9.269,70.707l167.66-57.539-0.293-2.793-176.64-10.375zm10.14,73.961c6.379,23.246,15.625,45.332,27.336,65.82l146.96-98.91-1-2.617-173.29,35.707zm29,68.746c12.129,20.617,26.754,39.574,43.457,56.472l116.37-133.51-1.742-2.25-158.09,79.289zm45.86,58.867c16.894,16.691,35.851,31.285,56.476,43.371l77.863-159.07-2.285-1.735-132.05,117.43zm59.425,45.066c20.461,11.684,42.516,20.899,65.766,27.262l33.949-173.7-2.555-1.152-97.16,147.59zm69.051,28.141c22.57,5.879,46.207,9.066,70.582,9.227l-12.164-176.47-2.758-0.453-55.66,167.7"/><path id="path3122" fill-rule="evenodd" fill="#e51635" d="m1751.5,268.56,15.58,4.679,0,262c0,63.414,0,66.024,20.25,68.102l18.71,1.555v11.171h-126.22v-11.171l18.68-1.555c20.28-2.078,20.28-4.688,20.28-68.102v-211.06c-7.79-9.364-40-41.582-94.03-41.582-80.51,0-92.98,49.375-92.98,123.71v128.93c0,63.43,0,66.028,20.26,68.102l18.7,1.555v11.171h-126.24v-11.171l18.71-1.555c20.25-2.074,20.25-4.672,20.25-68.102v-137.25c0-70.683,8.84-132.54,116.37-132.54,69.09,0,112.2,32.735,119.47,32.735,7.79,0.011,11.95-7.274,19.21-14.543l13-15.082"/><path id="path3124" fill-rule="evenodd" fill="#e51635" d="m1890.6,273.23,143.88,0,0,11.196-18.7,1.543c-29.09,2.086-29.09,4.668-29.09,68.093v247.46h27.01c73.24,0,74.28-7.796,85.7-68.093h12.46c0,2.082-2.58,71.203-4.66,82.636h-289.34c-2.08-11.433-4.67-80.554-4.67-82.636h12.46c11.42,60.297,12.46,68.093,85.71,68.093h27.03v-247.46c0-63.425,0-66.007-28.57-68.093l-19.22-1.543v-11.196"/><path id="path3126" fill-rule="evenodd" fill="#e51635" d="m2431.7,341.61c0,50.571,0,53.161,9.87,55.254l18.7,1.567v11.164h-131.94v-11.164l18.71-1.567c36.33-2.093,36.33-4.683,36.33-68.289v-39.222c-18.17-4.672-42.05-6.754-60.75-6.754-101.81,0-147,82.289-147,170.88,0,97.132,53.5,153.24,138.67,153.24,88.83,0,95.58-63.371,100.79-84.156l14.03,3.121c-2.29,25.625-5.04,54.726-8.32,76.882-13.5,8.301-52.98,21.305-105.96,21.305-82.08,0-193.75-41.562-193.75-180.25,0-132.38,93.5-178.17,197.91-178.17,55.57,0,95.33,14.942,113.71,20.707,0,0-1,39.821-1,55.457"/><path id="path3128" fill-rule="evenodd" fill="#e51635" d="m2492.2,273.23,237.92,0c6.79,28.114,12.58,54.028,17.13,86.239l-12.97,2.082c-10.41-42.614-15.59-73.778-98.33-73.778-18.63,0-37.8,3.118-56.46,6.754v149.61h46.12c40.42,0,49.75-0.524,52.84-21.821l2.63-17.636h13.7v93.468h-13.7l-2.63-17.66c-3.09-21.293-12.42-21.804-52.84-21.804h-46.12v142.84h43.01c73.33,0,74.37-7.789,85.81-63.378l12.47,2.089c0,4.664-2.62,64.399-4.7,75.832h-223.88v-11.171l18.71-1.555c20.25-2.078,20.25-4.688,20.25-68.16v-181c0-63.532,0-66.121-20.25-68.207l-18.71-1.543v-11.196"/><path id="path3130" fill-rule="evenodd" fill="#e51635" d="m2875.2,594.78c10.38,2.075,21.3,4.149,32.2,4.149,40.51,0,80.47-18.699,80.47-79.477,0-58.687-39.46-82.062-83.08-82.062h-29.59v157.39zm-87.28-321.54,125.7,0,0,11.196-18.71,1.543c-19.71,2.086-19.71,4.675-19.71,68.164v68.711h19.21c10.92,0,23.88,0,32.21-6.778,6.75-5.722,18.67-25.508,32.16-51.008l20.79-40.074c15.58-28.601,39.46-51.754,73.75-51.754h40v11.196c-11.45,0-20.79,2.047-25.99,5.172-12.97,7.293-35.84,37.996-57.63,77.035-14.04,24.972-31.21,58.297-39,72.836,28.58,13.511,71.7,42.129,71.7,90.507,0,78.973-69.61,86.086-118.9,86.086h-135.58v-11.171l18.7-1.555c20.25-2.078,20.25-4.688,20.25-68.152v-181.05c0-63.489,0-66.078-20.25-68.164l-18.7-1.543v-11.196"/><path id="path3132" fill-rule="evenodd" fill="#e51635" d="m3206.5,486.22c-28.06,16.597-50.38,33.226-50.38,63.875,0,34.8,26.45,56.617,56.62,56.617,58.67,0,66.99-45.199,72.17-71.156h13.01c-1.23,15.121-2.51,53.207-5.22,71.691-13.5,8.293-39.45,16.617-71.66,16.617-55.06,0-108.05-26.504-108.05-89.879,0-38.933,27.53-71.14,57.13-87.258l33.25-18.175c40.53-18.168,72.21-44.157,72.21-82.075,0-40.507-26.5-63.882-62.33-63.882-71.17,0-90.38,61.797-96.1,99.211l-16.62-4.161c5.88-35.621,11.67-71.804,16.62-91.425,16.1-9.875,41.01-20.778,81.56-20.778,55.04,0,119.95,27.028,119.95,97.129,0,62.36-42.55,84.156-83.63,107.53l-28.53,16.121"/><path id="path3134" fill-rule="evenodd" fill="#e51635" d="m1192.4,471.06c15.91-0.836,32.99,0.461,48.9,0.461,61.5,0,99.08,33,99.08,94.457,0,66.843-38.12,107.87-106.28,107.87-14.06,0-27.89-2.723-41.61-5.457l-0.09-197.33zm132.65,0.093c5.91-32.925,51.78-117.46,69.37-148.89,39.79-73.375,141.71-221.78,218-217l8.8-0.039-0.1-12.047-13.37-0.4609c-107.8-4.2032-204.12,115.88-260.16,212.17-22.79,39.168-44.87,84.625-64.58,125.42-4.88,10.539-11.06,17.25-17.96,21.457-10.63,5.625-24.49,5.543-35.94,5.543-6.66,0.058-26.42,0-36.71,0l-0.04-86.543c0-15.914-1.21-55.332,3.11-70.824,3.41-12.219,10.79-13.801,23.04-15.09l21.11-1.746v-9.797h-147.25v9.797l21.14,1.746c12.53,1.289,20.1,2.832,23.6,15.086,4.39,15.343,3.2,55.011,3.2,70.828v222.65c0,15.777,1.19,55.453-3.2,70.797-3.5,12.242-11.07,13.785-23.6,15.082l-21.14,1.738v9.809l100.4-0.016c88.36-0.019,207.64,12.59,207.64-111.68,0-50.282-34.19-83.032-75.99-103.57,0.17-2.039,0.63-4.422,0.63-4.422"/></g></g></g></g></svg>